<?xml version="1.0" encoding="UTF-8"?>
<svg xmlns="http://www.w3.org/2000/svg" xmlns:xlink="http://www.w3.org/1999/xlink" width="444px" height="250px" viewBox="0 0 444 250" version="1.1">
<g id="surface1">
<path style=" stroke:none;fill-rule:nonzero;fill:rgb(0%,0%,0%);fill-opacity:1;" d="M 152.460938 84.828125 C 148.304688 86.15625 144.835938 89.3125 142.960938 93.472656 C 141.867188 95.808594 141.730469 96.585938 141.914062 100.109375 C 142.003906 103.128906 142.28125 104.546875 143.101562 106.058594 L 144.152344 108.070312 L 142.324219 110.039062 C 141.320312 111.089844 140.222656 112.601562 139.859375 113.289062 C 138.03125 116.855469 137.851562 124.175781 139.492188 127.882812 C 140.726562 130.71875 143.921875 133.738281 146.617188 134.65625 C 148.535156 135.339844 151.457031 135.433594 169.445312 135.433594 C 192.367188 135.433594 192.597656 135.386719 196.066406 132.414062 C 202.183594 127.195312 202.183594 115.207031 196.066406 109.351562 C 194.789062 108.117188 194.742188 107.980469 195.425781 106.972656 C 195.792969 106.378906 196.429688 104.640625 196.839844 103.082031 C 197.664062 99.789062 197.207031 95.855469 195.609375 92.742188 C 194.285156 90.089844 191.269531 87.023438 188.621094 85.652344 L 186.339844 84.417969 L 170.359375 84.324219 C 158.121094 84.234375 153.921875 84.371094 152.460938 84.828125 Z M 184.101562 94.984375 C 187.9375 96.816406 187.890625 102.488281 184.054688 104.136719 C 182.09375 104.957031 157.4375 105.097656 155.15625 104.273438 C 153.511719 103.722656 151.867188 101.34375 151.867188 99.5625 C 151.867188 98.875 152.1875 97.683594 152.597656 96.953125 C 153.875 94.4375 154.878906 94.300781 169.355469 94.253906 C 180.632812 94.253906 182.777344 94.34375 184.101562 94.984375 Z M 186.707031 115.34375 C 191 116.535156 191.40625 122.667969 187.300781 124.632812 C 185.976562 125.277344 183.601562 125.367188 169.492188 125.367188 C 151.546875 125.367188 150.726562 125.277344 149.402344 122.667969 C 147.984375 119.921875 148.945312 116.628906 151.546875 115.53125 C 153.371094 114.703125 183.917969 114.566406 186.707031 115.34375 Z M 186.707031 115.34375 "/>
<path style=" stroke:none;fill-rule:nonzero;fill:rgb(0%,0%,0%);fill-opacity:1;" d="M 203.917969 89.222656 L 203.917969 94.253906 L 213.964844 94.253906 L 213.964844 135.433594 L 224.464844 135.433594 L 224.464844 84.1875 L 203.917969 84.1875 Z M 203.917969 89.222656 "/>
<path style=" stroke:none;fill-rule:nonzero;fill:rgb(0%,0%,0%);fill-opacity:1;" d="M 241.496094 85.054688 C 236.976562 86.703125 233.367188 90.683594 231.953125 95.488281 C 231.40625 97.410156 231.269531 100.382812 231.40625 111.730469 C 231.542969 125.226562 231.589844 125.640625 232.636719 128.019531 C 233.277344 129.390625 234.601562 131.175781 235.742188 132.230469 C 239.394531 135.433594 239.625 135.476562 262.179688 135.339844 L 282.222656 135.203125 L 284.738281 134.011719 C 288.023438 132.457031 290.488281 129.941406 292.179688 126.375 C 293.410156 123.71875 293.5 123.171875 293.320312 119.507812 C 293.183594 116.214844 292.910156 115.117188 291.8125 113.101562 C 290.03125 109.808594 286.835938 106.972656 283.59375 105.738281 C 280.992188 104.730469 280.582031 104.730469 261.359375 104.867188 L 241.816406 105.007812 L 241.816406 101.207031 C 241.816406 97.640625 241.910156 97.320312 243.09375 96.082031 C 243.960938 95.214844 245.105469 94.710938 246.429688 94.480469 C 250.128906 93.933594 279.621094 94.4375 280.214844 95.03125 C 280.535156 95.351562 280.902344 96.359375 281.039062 97.320312 L 281.3125 99.058594 L 291.359375 99.058594 L 291.21875 96.3125 C 290.992188 91.050781 287.703125 86.566406 282.773438 84.917969 C 280.902344 84.28125 277.933594 84.1875 262.226562 84.1875 C 245.46875 84.234375 243.644531 84.28125 241.496094 85.054688 Z M 281.8125 116.765625 C 283.59375 118.734375 283.824219 120.5625 282.589844 122.667969 C 281.039062 125.320312 280.582031 125.367188 261.359375 125.367188 C 240.8125 125.367188 241.816406 125.59375 241.816406 121.109375 C 241.816406 119.1875 242.046875 117.90625 242.546875 117.175781 C 244.144531 114.933594 244.921875 114.839844 263.183594 114.980469 L 280.261719 115.070312 Z M 281.8125 116.765625 "/>
<path style=" stroke:none;fill-rule:nonzero;fill:rgb(0%,0%,0%);fill-opacity:1;" d="M 142.960938 145.453125 C 139.949219 146.6875 139.675781 149.660156 142.417969 151.398438 C 145.292969 153.277344 144.242188 154.375 140.816406 153.046875 C 140.132812 152.773438 139.996094 152.957031 139.996094 154.097656 C 139.996094 155.378906 140.179688 155.5625 141.59375 155.835938 C 145.339844 156.527344 147.941406 155.015625 147.667969 152.316406 C 147.574219 151.171875 147.117188 150.53125 145.929688 149.707031 C 143.464844 148.058594 143.921875 147.097656 146.753906 147.96875 C 147.621094 148.289062 147.757812 148.152344 147.757812 146.960938 C 147.757812 145.132812 145.519531 144.445312 142.960938 145.453125 Z M 142.960938 145.453125 "/>
<path style=" stroke:none;fill-rule:nonzero;fill:rgb(0%,0%,0%);fill-opacity:1;" d="M 172.550781 145.359375 C 171.683594 145.496094 171 145.863281 170.816406 146.320312 C 170.675781 146.734375 170.085938 147.691406 169.492188 148.425781 L 168.394531 149.753906 L 168.625 147.601562 L 168.898438 145.496094 L 167.207031 145.496094 C 165.65625 145.496094 165.566406 145.589844 165.566406 146.960938 C 165.566406 147.785156 165.425781 150.164062 165.246094 152.222656 L 164.972656 156.023438 L 166.386719 156.023438 C 167.710938 156.023438 167.757812 155.929688 168.121094 153.597656 L 168.441406 151.21875 L 169.492188 153.597656 C 170.496094 155.835938 170.675781 156.023438 172.183594 156.023438 C 173.054688 156.023438 173.785156 155.792969 173.785156 155.5625 C 173.785156 155.289062 173.28125 154.054688 172.640625 152.820312 L 171.5 150.53125 L 173.097656 148.152344 C 174.695312 145.773438 175.015625 144.992188 174.375 145.132812 C 174.148438 145.132812 173.371094 145.269531 172.550781 145.359375 Z M 172.550781 145.359375 "/>
<path style=" stroke:none;fill-rule:nonzero;fill:rgb(0%,0%,0%);fill-opacity:1;" d="M 193.234375 146.183594 C 193.140625 146.6875 192.867188 149.113281 192.734375 151.535156 L 192.414062 156.023438 L 193.78125 156.023438 C 195.425781 156.023438 195.472656 155.746094 195.929688 149.339844 L 196.25 145.179688 L 194.832031 145.222656 C 193.871094 145.269531 193.417969 145.542969 193.234375 146.183594 Z M 193.234375 146.183594 "/>
<path style=" stroke:none;fill-rule:nonzero;fill:rgb(0%,0%,0%);fill-opacity:1;" d="M 215.058594 145.726562 C 214.785156 146.640625 214.148438 155.609375 214.375 155.835938 C 214.785156 156.25 220.355469 155.972656 221.453125 155.519531 C 222.914062 154.832031 223.824219 152.679688 223.234375 151.355469 C 222.957031 150.667969 222.957031 149.890625 223.234375 149.113281 C 223.597656 148.152344 223.550781 147.601562 222.957031 146.734375 C 222.273438 145.679688 221.863281 145.542969 218.714844 145.40625 C 216.65625 145.316406 215.152344 145.453125 215.058594 145.726562 Z M 219.855469 147.738281 C 220.722656 148.289062 220.128906 149.617188 219.03125 149.617188 C 217.984375 149.617188 217.433594 148.929688 217.796875 148.015625 C 218.074219 147.238281 218.894531 147.144531 219.855469 147.738281 Z M 220.265625 152.679688 C 220.128906 153.550781 218.894531 153.960938 217.84375 153.550781 C 216.703125 153.136719 217.617188 151.902344 219.078125 151.902344 C 220.128906 151.902344 220.402344 152.085938 220.265625 152.679688 Z M 220.265625 152.679688 "/>
<path style=" stroke:none;fill-rule:nonzero;fill:rgb(0%,0%,0%);fill-opacity:1;" d="M 279.941406 145.359375 C 276.195312 145.542969 275.191406 145.863281 275.148438 146.960938 C 275.148438 147.144531 275.832031 147.328125 276.65625 147.417969 C 278.296875 147.554688 278.253906 147.328125 277.703125 152.910156 L 277.429688 156.023438 L 280.488281 156.023438 L 280.902344 151.765625 L 281.3125 147.554688 L 282.816406 147.417969 C 284.007812 147.28125 284.277344 147.097656 284.277344 146.140625 C 284.277344 145.542969 284.234375 145.085938 284.1875 145.132812 C 284.097656 145.179688 282.222656 145.316406 279.941406 145.359375 Z M 279.941406 145.359375 "/>
<path style=" stroke:none;fill-rule:nonzero;fill:rgb(0%,0%,0%);fill-opacity:1;" d="M 289.074219 145.636719 C 288.753906 146.550781 288.070312 155.335938 288.25 155.65625 C 288.34375 155.882812 289.027344 156.023438 289.757812 156.023438 C 291.035156 156.023438 291.035156 155.972656 291.359375 152.453125 C 291.996094 145.542969 291.996094 145.40625 290.535156 145.222656 C 289.851562 145.179688 289.164062 145.359375 289.074219 145.636719 Z M 289.074219 145.636719 "/>
<path style=" stroke:none;fill-rule:nonzero;fill:rgb(0%,0%,0%);fill-opacity:1;" d="M 152.964844 150.578125 C 152.734375 153.367188 152.640625 155.699219 152.734375 155.835938 C 152.828125 155.929688 154.5625 156.023438 156.523438 156.023438 C 160.039062 156.023438 160.085938 156.023438 160.085938 154.875 C 160.085938 153.824219 159.902344 153.734375 158.03125 153.734375 C 156.296875 153.734375 155.976562 153.597656 155.976562 152.820312 C 155.976562 152.132812 156.296875 151.902344 157.300781 151.902344 C 158.488281 151.902344 159.171875 151.261719 159.171875 150.027344 C 159.171875 149.796875 158.578125 149.617188 157.847656 149.617188 C 156.339844 149.617188 155.839844 149.113281 156.25 148.058594 C 156.433594 147.511719 157.164062 147.328125 158.761719 147.328125 C 160.679688 147.328125 161 147.191406 161 146.414062 C 161 145.589844 160.679688 145.496094 157.164062 145.496094 L 153.371094 145.496094 Z M 152.964844 150.578125 "/>
<path style=" stroke:none;fill-rule:nonzero;fill:rgb(0%,0%,0%);fill-opacity:1;" d="M 179.582031 145.816406 C 179.445312 146.046875 179.21875 148.382812 179.035156 151.082031 L 178.714844 156.023438 L 180.085938 156.023438 C 181.453125 156.023438 181.546875 155.929688 181.820312 153.640625 L 182.140625 151.261719 L 183.324219 153.640625 C 184.378906 155.792969 184.605469 156.023438 185.976562 156.023438 C 187.800781 156.023438 187.800781 155.746094 186.339844 152.773438 L 185.152344 150.484375 L 186.796875 148.195312 C 187.664062 146.960938 188.394531 145.863281 188.394531 145.726562 C 188.394531 145.589844 187.710938 145.496094 186.84375 145.496094 C 185.515625 145.496094 185.0625 145.816406 183.875 147.417969 L 182.457031 149.339844 L 182.457031 147.417969 C 182.457031 145.589844 182.367188 145.496094 181.132812 145.496094 C 180.359375 145.496094 179.671875 145.636719 179.582031 145.816406 Z M 179.582031 145.816406 "/>
<path style=" stroke:none;fill-rule:nonzero;fill:rgb(0%,0%,0%);fill-opacity:1;" d="M 201.269531 146.503906 C 201.410156 147.464844 201.636719 147.554688 203.597656 147.417969 C 204.785156 147.375 205.746094 147.417969 205.746094 147.601562 C 205.746094 147.738281 204.511719 149.203125 203.007812 150.851562 C 201.269531 152.773438 200.265625 154.28125 200.265625 154.96875 C 200.265625 156.066406 200.3125 156.066406 204.742188 155.929688 C 208.941406 155.792969 209.171875 155.746094 209.304688 154.738281 C 209.441406 153.777344 209.304688 153.734375 206.839844 153.734375 L 204.191406 153.734375 L 206.019531 151.765625 C 208.941406 148.65625 209.71875 147.601562 210.082031 146.503906 C 210.355469 145.496094 210.308594 145.496094 205.746094 145.496094 C 201.222656 145.496094 201.132812 145.496094 201.269531 146.503906 Z M 201.269531 146.503906 "/>
<path style=" stroke:none;fill-rule:nonzero;fill:rgb(0%,0%,0%);fill-opacity:1;" d="M 228.847656 147.191406 C 228.710938 148.152344 228.484375 150.53125 228.300781 152.453125 L 228.027344 156.023438 L 229.398438 156.023438 C 230.171875 156.023438 230.902344 155.882812 230.996094 155.65625 C 231.132812 155.472656 231.359375 153.136719 231.542969 150.394531 L 231.863281 145.496094 L 230.492188 145.496094 C 229.261719 145.496094 229.078125 145.679688 228.847656 147.191406 Z M 228.847656 147.191406 "/>
<path style=" stroke:none;fill-rule:nonzero;fill:rgb(0%,0%,0%);fill-opacity:1;" d="M 237.066406 147.191406 C 236.929688 148.152344 236.703125 150.53125 236.519531 152.496094 L 236.246094 156.066406 L 237.753906 155.929688 C 239.167969 155.792969 239.304688 155.65625 239.441406 154.054688 C 239.625 151.859375 240.171875 151.902344 241.085938 154.191406 C 241.722656 155.835938 241.953125 156.023438 243.414062 156.023438 C 245.242188 156.023438 245.332031 155.792969 244.238281 153.550781 C 243.507812 151.949219 243.507812 151.902344 244.691406 150.988281 C 246.109375 149.84375 246.289062 148.058594 245.195312 146.503906 C 244.601562 145.589844 244.101562 145.496094 240.902344 145.496094 L 237.339844 145.496094 Z M 242.730469 148.699219 C 242.730469 149.433594 242.410156 149.617188 241.359375 149.617188 C 240.308594 149.617188 239.988281 149.433594 239.988281 148.699219 C 239.988281 147.96875 240.308594 147.785156 241.359375 147.785156 C 242.410156 147.785156 242.730469 147.96875 242.730469 148.699219 Z M 242.730469 148.699219 "/>
<path style=" stroke:none;fill-rule:nonzero;fill:rgb(0%,0%,0%);fill-opacity:1;" d="M 251.539062 150.4375 C 250.445312 153.136719 249.578125 155.519531 249.578125 155.699219 C 249.578125 155.882812 250.265625 156.023438 251.132812 156.023438 C 252.316406 156.023438 252.773438 155.792969 253.003906 155.105469 C 253.230469 154.421875 253.6875 154.191406 254.921875 154.191406 C 256.109375 154.191406 256.5625 154.421875 256.746094 155.105469 C 256.929688 155.746094 257.386719 156.023438 258.207031 156.023438 C 258.890625 156.023438 259.578125 155.929688 259.714844 155.792969 C 259.945312 155.5625 259.351562 152.316406 258.023438 146.503906 C 257.796875 145.636719 257.476562 145.496094 255.605469 145.496094 L 253.460938 145.496094 Z M 255.96875 150.757812 C 255.96875 151.398438 255.652344 151.722656 255.058594 151.765625 C 253.960938 151.859375 254.007812 151.949219 254.648438 150.121094 C 255.058594 149.019531 255.285156 148.792969 255.558594 149.25 C 255.789062 149.570312 255.96875 150.257812 255.96875 150.757812 Z M 255.96875 150.757812 "/>
<path style=" stroke:none;fill-rule:nonzero;fill:rgb(0%,0%,0%);fill-opacity:1;" d="M 265.375 146.277344 C 265.285156 146.734375 265.054688 149.113281 264.875 151.535156 L 264.554688 156.023438 L 268.253906 156.023438 C 270.308594 156.023438 271.953125 155.835938 271.953125 155.609375 C 271.953125 155.378906 272.089844 154.875 272.226562 154.464844 C 272.453125 153.871094 272.089844 153.734375 270.125 153.734375 L 267.75 153.734375 L 268.117188 149.617188 L 268.4375 145.496094 L 267.019531 145.496094 C 266.0625 145.496094 265.558594 145.773438 265.375 146.277344 Z M 265.375 146.277344 "/>
</g>
</svg>
